<?xml version="1.0" encoding="UTF-8" standalone="no"?>
<svg
   width="704.00006"
   height="704.00006"
   viewBox="0 0 704.00005 704.00006"
   fill="none"
   version="1.1"
   id="svg146"
   sodipodi:docname="railway-logo-blue.svg"
   inkscape:version="1.2.1 (9c6d41e410, 2022-07-14)"
   xmlns:inkscape="http://www.inkscape.org/namespaces/inkscape"
   xmlns:sodipodi="http://sodipodi.sourceforge.net/DTD/sodipodi-0.dtd"
   xmlns="http://www.w3.org/2000/svg"
   xmlns:svg="http://www.w3.org/2000/svg">
  <defs
     id="defs150" />
  <sodipodi:namedview
     id="namedview148"
     pagecolor="#ffffff"
     bordercolor="#000000"
     borderopacity="0.25"
     inkscape:showpageshadow="true"
     inkscape:pageopacity="0"
     inkscape:pagecheckerboard="0"
     inkscape:deskcolor="#d1d1d1"
     showgrid="false"
     inkscape:zoom="0.35012055"
     inkscape:cx="806.86495"
     inkscape:cy="898.26204"
     inkscape:window-width="1920"
     inkscape:window-height="1057"
     inkscape:window-x="-8"
     inkscape:window-y="-8"
     inkscape:window-maximized="1"
     inkscape:current-layer="svg146"
     showborder="false" />
  <path
     d="M 3.27,301.245 A 357.915,357.915 0 0 0 0,336.693 h 534.73705 c -1.868,-3.648 -4.376,-6.937 -6.906,-10.156 C 436.41405,208.431 387.238,218.671 316.893,215.671 c -23.453,-0.965 -39.359,-1.352 -132.713,-1.352 -49.965,0 -104.286,0.127 -157.182,0.267 -6.847,18.483 -13.451,36.399 -16.667,50.972 h 274.018 v 35.687 z m 535.68105,71.171 H 0.275 c 0.564,9.522 1.452,18.918 2.734,28.187 h 497.32995 c 22.1711,0 34.581,-12.579 38.6121,-28.187 z M 30.949,497.96 c 0,0 82.448,202.44205 320.68,206.04005 142.38905,0 264.73605,-84.56705 320.31005,-206.04005 z"
     fill="#5895f5"
     id="path142"
     style="fill:#5895f5;fill-opacity:1" />
  <path
     d="M 351.624,0 C 219.968,0 105.401,72.298 44.901,179.17 92.18,179.072 184.26,179.015 184.26,179.015 h 0.021 v -0.035 c 108.837,0 112.882,0.486 134.144,1.374 l 13.164,0.486 c 45.857,1.528 102.21995,6.451 146.56795,40.005 24.0741,18.199 58.831,58.366 79.55,86.982 19.154,26.469 24.665,56.895 11.642,86.047 -11.988,26.792 -37.78,42.773 -69.0139,42.773 H 11.474 c 0,0 2.91,12.336 7.274,25.953 h 667.31195 a 351.08,351.08 0 0 0 17.9401,-110.45 C 704.01005,157.682 546.24105,0 351.624,0 Z"
     id="path144"
     style="fill:#5895f5" />
</svg>
