<?xml version="1.0" encoding="UTF-8" standalone="no"?>
<svg
   width="3000"
   height="2048"
   viewBox="0 0 3000 2048"
   fill="none"
   version="1.1"
   id="svg146"
   sodipodi:docname="railway-logo-blue copy.svg"
   inkscape:version="1.2.1 (9c6d41e410, 2022-07-14)"
   xmlns:inkscape="http://www.inkscape.org/namespaces/inkscape"
   xmlns:sodipodi="http://sodipodi.sourceforge.net/DTD/sodipodi-0.dtd"
   xmlns="http://www.w3.org/2000/svg"
   xmlns:svg="http://www.w3.org/2000/svg">
  <defs
     id="defs150" />
  <sodipodi:namedview
     id="namedview148"
     pagecolor="#ffffff"
     bordercolor="#000000"
     borderopacity="0.25"
     inkscape:showpageshadow="true"
     inkscape:pageopacity="0"
     inkscape:pagecheckerboard="0"
     inkscape:deskcolor="#d1d1d1"
     showgrid="false"
     inkscape:zoom="0.35012055"
     inkscape:cx="1853.6473"
     inkscape:cy="1198.1588"
     inkscape:window-width="1920"
     inkscape:window-height="1057"
     inkscape:window-x="-8"
     inkscape:window-y="-8"
     inkscape:window-maximized="1"
     inkscape:current-layer="svg146"
     showborder="false" />
  <path
     d="m 1054.4467,604.05295 a 357.915,357.915 0 0 0 -3.27,35.448 h 534.737 c -1.868,-3.648 -4.376,-6.937 -6.906,-10.156 -91.417,-118.106 -140.593,-107.866 -210.938,-110.866 -23.453,-0.965 -39.359,-1.352 -132.713,-1.352 -49.965,0 -104.286,0.127 -157.182,0.267 -6.847,18.483 -13.451,36.399 -16.667,50.972 h 274.018 v 35.687 z m 535.681,71.171 h -538.676 c 0.564,9.522 1.452,18.918 2.734,28.187 h 497.33 c 22.171,0 34.581,-12.579 38.612,-28.187 z m -508.002,125.544 c 0,0 82.448,202.44205 320.68,206.04005 142.389,0 264.736,-84.56705 320.31,-206.04005 z"
     fill="#5895f5"
     id="path142"
     style="fill:#5895f5;fill-opacity:1" />
  <path
     d="m 2245.5175,1691.9944 c 60.79,0 93,-31.066 109.69,-78.623 l 114.48,-325.994 -86.49,-0.383 -61.55,216.306 h -3.07 l -60.98,-216.306 h -85.91 l 105.66,302.983 -4.79,12.464 c -10.74,27.614 -31.26,28.956 -60.02,20.135 l -18.41,60.98 c 11.69,4.986 30.68,8.438 51.39,8.438 z"
     id="path886"
     style="stroke:#5895f5;stroke-opacity:1" />
  <path
     d="m 1999.7775,1530.7224 c -25.12,0 -43.15,-11.697 -43.15,-34.133 0,-23.012 18.99,-34.326 47.75,-38.353 17.83,-2.492 46.98,-6.711 56.76,-13.231 v 31.257 c 0,30.874 -25.5,54.46 -61.36,54.46 z"
     id="path884"
     style="stroke:#5895f5;stroke-opacity:1" />
  <path
     d="m 1976.3775,1587.1004 c 43.53,0 71.72,-18.984 86.1,-46.406 h 2.3 v 40.845 h 77.48 v -198.665 c 0,-70.184 -59.45,-99.716 -125.03,-99.716 -70.57,0 -116.98,33.75 -128.29,87.443 l 75.55,6.137 c 5.56,-19.56 23.01,-33.942 52.35,-33.942 27.81,0 43.73,13.999 43.73,38.161 v 1.15 c 0,18.985 -20.14,21.477 -71.34,26.463 -58.3,5.37 -110.65,24.929 -110.65,90.703 0,58.296 41.62,87.827 97.8,87.827 z"
     id="path882"
     style="stroke:#5895f5;stroke-opacity:1" />
  <path
     d="m 1491.1775,1581.5394 h 86.29 l 50.63,-185.241 h 3.64 l 50.62,185.241 h 86.49 l 79.96,-294.545 h -82.45 l -44.88,196.747 h -2.49 l -48.32,-196.747 h -81.12 l -47.56,197.897 h -2.68 l -45.64,-197.897 h -82.65 z"
     id="path880"
     style="stroke:#5895f5;stroke-opacity:1" />
  <path
     d="m 1367.6375,1188.8124 h -81.69 v 392.727 h 81.69 z"
     id="path878"
     style="stroke:#5895f5;stroke-opacity:1" />
  <path
     d="m 1179.8475,1249.0254 c 24.36,0 44.3,-18.601 44.3,-41.421 0,-22.627 -19.94,-41.228 -44.3,-41.228 -24.16,0 -44.1,18.601 -44.1,41.228 0,22.82 19.94,41.421 44.1,41.421 z"
     id="path876"
     style="stroke:#5895f5;stroke-opacity:1" />
  <path
     d="m 1138.8175,1581.5394 h 81.69 v -294.545 h -81.69 z"
     id="path874"
     style="stroke:#5895f5;stroke-opacity:1" />
  <path
     d="m 932.95752,1530.7224 c -25.12,0 -43.15,-11.697 -43.15,-34.133 0,-23.012 18.99,-34.326 47.75,-38.353 17.84,-2.492 46.98,-6.711 56.76,-13.231 v 31.257 c 0,30.874 -25.5,54.46 -61.36,54.46 z"
     id="path872"
     style="stroke:#5895f5;stroke-opacity:1" />
  <path
     d="m 909.56752,1587.1004 c 43.53,0 71.71,-18.984 86.1,-46.406 h 2.3 v 40.845 h 77.46998 v -198.665 c 0,-70.184 -59.45,-99.716 -125.02998,-99.716 -70.57,0 -116.97,33.75 -128.29,87.443 l 75.56,6.137 c 5.56,-19.56 23.01,-33.942 52.35,-33.942 27.8,0 43.72,13.999 43.72,38.161 v 1.15 c 0,18.985 -20.14,21.477 -71.34,26.463 -58.29,5.37 -110.64,24.929 -110.64,90.703 0,58.296 41.61,87.827 97.8,87.827 z"
     id="path870"
     style="stroke:#5895f5;stroke-opacity:1" />
  <path
     d="m 555.76755,1375.5874 v -118.892 h 55.98997 c 47.94,0 71.14,21.286 71.14,60.405 0,38.928 -23.2,58.487 -70.76,58.487 z"
     id="path868"
     inkscape:label="path868"
     style="stroke:#5895f5;stroke-opacity:1" />
  <path
     d="m 472.72755,1581.5394 h 83.04 v -139.219 h 60.58997 l 74.41,139.219 h 91.66 l -83.42,-152.642 c 44.68,-19.176 69.42,-58.104 69.42,-111.797 0,-78.047 -51.58,-128.288 -140.75,-128.288 H 472.72755 Z"
     id="path866"
     style="stroke:#5895f5;stroke-opacity:1" />
  <path
     d="m 1402.8007,302.80795 c -131.656,0 -246.223,72.298 -306.723,179.17 47.279,-0.098 139.359,-0.155 139.359,-0.155 h 0.021 v -0.035 c 108.837,0 112.882,0.486 134.144,1.374 l 13.164,0.486 c 45.857,1.528 102.22,6.451 146.568,40.005 24.074,18.199 58.831,58.366 79.55,86.982 19.154,26.469 24.665,56.895 11.642,86.047 -11.988,26.792 -37.78,42.773 -69.014,42.773 h -488.861 c 0,0 2.91,12.336 7.274,25.953 h 667.312 a 351.08,351.08 0 0 0 17.94,-110.45 c 0.01,-194.468 -157.759,-352.15 -352.376,-352.15 z"
     id="path144"
     style="fill:#5895f5" />
  <path
     style="fill:#5895f5;fill-opacity:1;stroke:#5895f5;stroke-width:2.86066;stroke-miterlimit:0;stroke-dasharray:none;stroke-opacity:1"
     d="m 475.55045,1385.2372 v -194.2188 l 86.3989,0.05 c 94.46377,0.054 112.11827,2.0563 140.44677,15.9275 45.5212,22.2895 70.803,75.6268 62.1695,131.1595 -5.5976,36.0056 -25.9218,67.1007 -53.3779,81.6662 -7.0713,3.7513 -12.8313,8.108 -12.8,9.6816 0.031,1.5736 17.9683,35.6355 39.86,75.6931 l 39.8032,72.8321 -40.4427,0.796 c -22.2435,0.4378 -41.9245,0.2273 -43.7356,-0.4676 -1.811,-0.6949 -19.7208,-32.221 -39.7996,-70.0578 l -36.5068,-68.7944 h -32.44967 -32.4498 v 69.9759 69.9759 h -38.5581 -38.5582 z m 183.23387,-17.8106 c 17.6611,-10.3822 25.2658,-25.7896 25.2658,-51.1897 0,-26.9014 -8.116,-41.1643 -29.7281,-52.2435 -15.5758,-7.9847 -18.6644,-8.4888 -59.04537,-9.6359 l -42.6099,-1.2105 v 62.0066 62.0066 l 46.4126,-0.9598 c 44.58837,-0.922 46.93507,-1.2669 59.70497,-8.7738 z"
     id="path4286" />
  <path
     style="fill:#5895f5;fill-opacity:1;stroke:#5895f5;stroke-width:2.86066;stroke-miterlimit:0;stroke-dasharray:none;stroke-opacity:1"
     d="m 880.39942,1582.0675 c -42.1164,-9.9261 -66.0462,-40.001 -65.8341,-82.7399 0.1247,-25.1246 6.324,-41.9906 20.7289,-56.3955 18.9652,-18.9652 41.903,-26.7948 97.9707,-33.4413 42.6395,-5.0547 58.5255,-10.3745 61.053,-20.4449 3.0678,-12.2231 -1.1914,-27.365 -10.2437,-36.4172 -7.5953,-7.5953 -10.9538,-8.7466 -28.3875,-9.7317 -10.8752,-0.6145 -24.3076,0.3792 -29.8498,2.2083 -11.0505,3.647 -27.5749,18.828 -27.5749,25.3332 0,3.4324 -4.8264,3.796 -29.2756,2.2055 -16.1016,-1.0474 -32.763,-2.59 -37.0254,-3.428 l -7.7497,-1.5236 4.64,-11.9348 c 5.892,-15.1553 20.7708,-35.865 31.388,-43.6889 39.6138,-29.1916 100.205,-35.1411 153.77208,-15.0991 12.1594,4.5494 21.5725,10.9254 32.9615,22.3264 25.5342,25.5612 25.5148,25.4455 25.5148,152.1348 v 108.0252 h -35.702 -35.702 v -19.9931 c 0,-23.1514 -3.37178,-25.4871 -14.08538,-9.7574 -18.9787,27.8645 -65.6123,42.0218 -106.5989,32.362 z m 86.0203,-57.5931 c 8.3906,-3.919 15.1565,-10.0687 20.7072,-18.8212 7.4863,-11.8047 8.2445,-15.3221 8.2445,-38.247 0,-23.8132 -0.3045,-25.0838 -5.3628,-22.3767 -2.9495,1.5785 -20.5903,5.5963 -39.2018,8.9285 -36.595,6.5518 -44.5316,9.5737 -55.2362,21.0316 -5.4785,5.864 -6.9756,10.5432 -6.9756,21.8024 0,12.0959 1.3285,15.6645 8.5025,22.8385 14.5874,14.5874 44.0533,16.6463 69.3222,4.8439 z"
     id="path4288" />
  <path
     style="fill:#5895f5;fill-opacity:1;stroke:#5895f5;stroke-width:2.86066;stroke-miterlimit:0;stroke-dasharray:none;stroke-opacity:1"
     d="m 1141.0355,1433.7919 v -145.6641 h 38.5582 38.5581 v 145.6641 145.6641 h -38.5581 -38.5582 z"
     id="path4290" />
  <path
     style="fill:#5895f5;fill-opacity:1;stroke:#5895f5;stroke-width:2.86066;stroke-miterlimit:0;stroke-dasharray:none;stroke-opacity:1"
     d="m 1169.3503,1245.4413 c -26.1784,-8.0377 -38.2696,-32.4108 -26.9438,-54.3126 13.6767,-26.4477 49.5795,-30.1096 69.7681,-7.116 10.6821,12.1662 11.9414,29.0068 3.2367,43.2831 -8.7624,14.3707 -30.4846,22.9281 -46.061,18.1455 z"
     id="path4292" />
  <path
     style="fill:#5895f5;fill-opacity:1;stroke:#5895f5;stroke-width:2.86066;stroke-miterlimit:0;stroke-dasharray:none;stroke-opacity:1"
     d="m 1286.6996,1385.2372 v -194.2188 h 39.9863 39.9862 v 194.2188 194.2188 h -39.9862 -39.9863 z"
     id="path4294" />
  <path
     style="fill:#5895f5;fill-opacity:1;stroke:#5895f5;stroke-width:2.86066;stroke-miterlimit:0;stroke-dasharray:none;stroke-opacity:1"
     d="m 1491.2667,1574.5329 c -6.8726,-23.1057 -76.0399,-280.6957 -76.0399,-283.1846 0,-2.2297 11.777,-3.2205 38.2789,-3.2205 h 38.2789 l 7.4223,32.1318 c 41.1111,177.975 39.3396,171.1027 43.1279,167.3144 0.7904,-0.7903 12.0822,-45.6678 25.093,-99.7276 l 23.6559,-98.2905 38.909,-0.793 38.9089,-0.7929 23.4606,96.4743 c 21.9276,90.1706 26.0769,104.1072 29.8672,100.3169 0.8189,-0.8188 11.4438,-45.3922 23.6109,-99.052 l 22.1222,-97.5633 39.2721,-0.01 c 21.5997,-0.01 39.2193,0.3123 39.1546,0.705 -0.065,0.3927 -17.8078,65.6202 -39.4292,144.9501 l -39.3115,144.236 -41.7469,0.7891 -41.7469,0.7891 -4.3096,-15.0699 c -2.3703,-8.2884 -13.5293,-49.1296 -24.7978,-90.7581 -19.4605,-71.8919 -23.3316,-83.2014 -27.1663,-79.3668 -0.909,0.9091 -12.9108,42.5947 -26.6706,92.6347 l -25.0177,90.9819 -41.7085,0.7892 c -37.8831,0.7167 -41.8469,0.3238 -43.2175,-4.2843 z"
     id="path4296" />
  <path
     style="fill:#5895f5;fill-opacity:1;stroke:#5895f5;stroke-width:2.86066;stroke-miterlimit:0;stroke-dasharray:none;stroke-opacity:1"
     d="m 1936.6203,1578.446 c -43.84,-15.3475 -65.665,-59.6878 -51.8971,-105.4351 7.8691,-26.1471 27.0186,-43.8882 57.5516,-53.3188 9.7404,-3.0085 35.5552,-7.6206 57.3663,-10.2491 21.8111,-2.6284 43.8418,-6.5173 48.9572,-8.6419 10.8342,-4.4999 15.5703,-14.5338 13.0751,-27.7013 -4.2554,-22.4566 -16.2543,-30.6787 -44.7934,-30.6943 -24.0899,-0.013 -37.1239,5.6707 -47.2352,20.5983 l -7.4635,11.0187 -27.1335,-1.6621 c -32.4571,-1.9881 -42.8424,-3.7912 -42.8424,-7.4382 0,-5.4037 14.4574,-31.0982 22.9229,-40.7399 36.3885,-41.4442 120.797,-51.5035 177.6959,-21.1767 18.0379,9.6141 33.1314,25.6244 41.3801,43.8937 4.5074,9.9831 5.1535,23.2685 5.9271,121.8806 l 0.8683,110.6761 h -37.2843 -37.2843 v -19.9931 c 0,-10.9962 -0.964,-19.9925 -2.1421,-19.9917 -1.1782,8e-4 -7.8234,6.5984 -14.7672,14.6615 -17.466,20.2813 -36.3489,28.5869 -68.4337,30.1005 -20.6896,0.976 -27.7873,0.052 -44.4678,-5.7872 z m 94.2032,-53.1063 c 22.9006,-9.9276 32.7071,-29.1016 32.7355,-64.0058 0.014,-17.5249 -0.5097,-19.371 -4.9823,-17.5535 -10.6045,4.3092 -23.0608,7.3518 -47.5601,11.6169 -13.9836,2.4344 -30.3444,6.936 -36.3572,10.0035 -18.0963,9.232 -24.725,30.2038 -15.3047,48.4207 9.852,19.0518 42.1012,24.2492 71.4688,11.5182 z"
     id="path4298" />
  <path
     style="fill:#5895f5;fill-opacity:1;stroke:#5895f5;stroke-width:2.86066;stroke-miterlimit:0;stroke-dasharray:none;stroke-opacity:1"
     d="m 2216.3794,1687.6756 c -7.8544,-1.5863 -15.3263,-3.9169 -16.6042,-5.1792 -1.2778,-1.2622 1.2447,-14.4893 5.6057,-29.3936 l 7.9292,-27.0986 19.3096,1.3816 c 14.8675,1.0638 20.9613,0.2994 26.4893,-3.3227 8.1128,-5.3158 18.6779,-24.1603 18.6779,-33.3152 0,-3.3399 -23.1349,-72.3616 -51.4109,-153.3815 -28.276,-81.0199 -51.4109,-147.7783 -51.4109,-148.3522 0,-0.5738 18.2865,-0.6866 40.6367,-0.2508 l 40.6367,0.7925 30.0951,106.8819 c 16.5522,58.785 31.5661,107.3722 33.3641,107.9716 1.8427,0.6142 5.0085,-4.8963 7.2554,-12.6287 2.1924,-7.5451 16.1257,-56.4466 30.963,-108.6701 l 26.9767,-94.9517 40.7003,-0.015 c 22.3851,-0.01 40.7003,0.5706 40.7003,1.287 0,6.0807 -116.8539,332.4678 -123.5841,345.1855 -11.0128,20.8102 -31.9918,39.9045 -52.1159,47.4339 -18.4695,6.9103 -54.3768,9.6323 -74.214,5.6259 z"
     id="path4300" />
</svg>
